{
  "accessors": [
    {
      "bufferView": 1,
      "componentType": 5126,
      "count": 5734,
      "max": [
        0.5804022550582886,
        0.5543197393417358,
        1.3276376724243164
      ],
      "min": [
        -0.4047272503376007,
        -1.01506507396698,
        0.34022367000579834
      ],
      "type": "VEC3"
    },
    {
      "bufferView": 1,
      "byteOffset": 68808,
      "componentType": 5126,
      "count": 5734,
      "max": [
        0.9998943209648132,
        0.9998151659965515,
        0.9995356798171997
      ],
      "min": [
        -0.9999237656593323,
        -0.9998573660850525,
        -0.9999828338623047
      ],
      "type": "VEC3"
    },
    {
      "bufferView": 0,
      "componentType": 5125,
      "count": 34128,
      "type": "SCALAR"
    }
  ],
  "asset": {
    "extras": {
      "author": "Javier Da Rosa (https://sketchfab.com/Javier_Da_Rosa)",
      "license": "CC-BY-4.0 (http://creativecommons.org/licenses/by/4.0/)",
      "source": "https://sketchfab.com/3d-models/n64-master-hand-smooth-ver-2ca4295edabe484f88deabf12396f185",
      "title": "N64 Master Hand (Smooth Ver.)"
    },
    "generator": "Sketchfab-12.68.0",
    "version": "2.0"
  },
  "bufferViews": [
    {
      "buffer": 0,
      "byteLength": 136512,
      "name": "floatBufferViews",
      "target": 34963
    },
    {
      "buffer": 0,
      "byteLength": 137616,
      "byteOffset": 136512,
      "byteStride": 12,
      "name": "floatBufferViews",
      "target": 34962
    }
  ],
  "buffers": [
    {
      "byteLength": 274128,
      "uri": "scene.bin"
    }
  ],
  "materials": [
    {
      "doubleSided": true,
      "emissiveFactor": [
        0.5,
        0.5,
        0.5
      ],
      "name": "Scene_-_Root",
      "pbrMetallicRoughness": {
        "metallicFactor": 0.0
      }
    }
  ],
  "meshes": [
    {
      "name": "Object_0",
      "primitives": [
        {
          "attributes": {
            "NORMAL": 1,
            "POSITION": 0
          },
          "indices": 2,
          "material": 0,
          "mode": 4
        }
      ]
    }
  ],
  "nodes": [
    {
      "children": [
        1
      ],
      "matrix": [
        1.0,
        0.0,
        0.0,
        0.0,
        0.0,
        2.220446049250313e-16,
        -1.0,
        0.0,
        0.0,
        1.0,
        2.220446049250313e-16,
        0.0,
        0.0,
        0.0,
        0.0,
        1.0
      ],
      "name": "Sketchfab_model"
    },
    {
      "children": [
        2
      ],
      "name": "mh.STL.cleaner"
    },
    {
      "mesh": 0,
      "name": "Object_2"
    }
  ],
  "scene": 0,
  "scenes": [
    {
      "name": "Sketchfab_Scene",
      "nodes": [
        0
      ]
    }
  ]
}
